<svg width="1290" height="686" viewBox="0 0 1290 686" fill="#000000" xmlns="http://www.w3.org/2000/svg">

<defs>
<path d="M246.081 280.864C247.28 283.286 249.063 286.147 251.412 289.443C251.412 289.443 251.413 289.444 251.413 289.444L252.184 290.533L253 291.685L253.816 290.533L254.587 289.444C254.587 289.444 254.588 289.443 254.588 289.443C256.937 286.147 258.72 283.286 259.919 280.864C261.106 278.466 261.773 276.4 261.773 274.727C261.773 271.953 260.984 269.601 259.335 267.764L258.629 268.397L259.335 267.764C257.682 265.921 255.543 265 253 265C250.457 265 248.318 265.921 246.665 267.764C245.016 269.601 244.227 271.953 244.227 274.727C244.227 276.4 244.894 278.466 246.081 280.864Z" fill="#0A0066" stroke="white" stroke-width="2"/>
<path d="M251.256 275.499C251.76 275.985 252.341 276.227 253 276.227C253.659 276.227 254.24 275.985 254.744 275.499C255.248 275.013 255.5 274.44 255.5 273.779C255.5 273.08 255.248 272.487 254.744 272.002C254.24 271.516 253.659 271.273 253 271.273C252.341 271.273 251.76 271.516 251.256 272.002C250.752 272.487 250.5 273.08 250.5 273.779C250.5 274.44 250.752 275.013 251.256 275.499Z" fill="white"/>
<g clip-path="url(#clip0_1593_11776)">
<path d="M529.197 368.436H500.194V384.188H529.197V368.436Z" stroke="#0A0066" stroke-width="2" stroke-miterlimit="10"/>
<path d="M528.324 386.935V389.632" stroke="#0A0066" stroke-width="2" stroke-miterlimit="10"/>
<path d="M489.145 391.561C490.613 391.561 491.802 390.372 491.802 388.904C491.802 387.437 490.613 386.247 489.145 386.247C487.678 386.247 486.488 387.437 486.488 388.904C486.488 390.372 487.678 391.561 489.145 391.561Z" stroke="#0A0066" stroke-width="2" stroke-miterlimit="10"/>
<path d="M522.634 391.561C524.101 391.561 525.291 390.372 525.291 388.904C525.291 387.437 524.101 386.247 522.634 386.247C521.167 386.247 519.977 387.437 519.977 388.904C519.977 390.372 521.167 391.561 522.634 391.561Z" stroke="#0A0066" stroke-width="2" stroke-miterlimit="10"/>
<path d="M515.522 391.561C516.989 391.561 518.179 390.372 518.179 388.904C518.179 387.437 516.989 386.247 515.522 386.247C514.054 386.247 512.865 387.437 512.865 388.904C512.865 390.372 514.054 391.561 515.522 391.561Z" stroke="#0A0066" stroke-width="2" stroke-miterlimit="10"/>
<path d="M510.225 388.283H494.428" stroke="#0A0066" stroke-width="2" stroke-miterlimit="10"/>
<path d="M483.977 388.935H480.803" stroke="#0A0066" stroke-width="2" stroke-miterlimit="10"/>
<path d="M496.973 385.983V373.862H490.649L487.057 380.529H481.522V385.983H483.977" stroke="#0A0066" stroke-width="2" stroke-miterlimit="10"/>
<path d="M505.482 371.831V380.66" stroke="#0A0066" stroke-width="2" stroke-miterlimit="10"/>
<path d="M510.179 371.831V380.66" stroke="#0A0066" stroke-width="2" stroke-miterlimit="10"/>
<path d="M514.877 371.831V380.66" stroke="#0A0066" stroke-width="2" stroke-miterlimit="10"/>
<path d="M519.575 371.831V380.66" stroke="#0A0066" stroke-width="2" stroke-miterlimit="10"/>
<path d="M524.27 371.831V380.66" stroke="#0A0066" stroke-width="2" stroke-miterlimit="10"/>
</g>
<g clip-path="url(#clip1_1593_11776)">
<path d="M526.148 218.595L527.461 214.696L496.71 206.376L482.422 202.511L490.012 218.926" stroke="#0A0066" stroke-width="2" stroke-miterlimit="10"/>
<path d="M507.769 206.152V201.576H506.377V196.659H524.431V201.576H523.039V213.914" stroke="#0A0066" stroke-width="2" stroke-miterlimit="10"/>
<path d="M519.864 202.582H510.944" stroke="#0A0066" stroke-width="2" stroke-miterlimit="10"/>
<path d="M515.404 196.659V189.614" stroke="#0A0066" stroke-width="2" stroke-miterlimit="10"/>
<path d="M492.091 210.971C492.507 210.971 492.845 210.633 492.845 210.217C492.845 209.8 492.507 209.463 492.091 209.463C491.674 209.463 491.337 209.8 491.337 210.217C491.337 210.633 491.674 210.971 492.091 210.971Z" fill="#0A0066" stroke="#0A0066" stroke-width="2" stroke-miterlimit="10"/>
<path d="M532 222C528.937 222 528.937 219 525.875 219C522.812 219 522.812 222 519.75 222C516.687 222 516.687 219 513.625 219C510.562 219 510.562 222 507.5 222C504.437 222 504.437 219 501.375 219C498.312 219 498.312 222 495.25 222C492.187 222 492.187 219 489.125 219C486.062 219 486.062 222 483 222" stroke="#0A0066" stroke-width="2" stroke-miterlimit="10"/>
</g>
<g clip-path="url(#clip2_1593_11776)">
<path d="M453.222 289.016H464.164L467.149 285.036H470.134L468.145 291.999L470.134 298.961H467.149L464.164 294.981H453.222" stroke="#0A0066" stroke-width="2" stroke-miterlimit="10"/>
<path d="M455.543 302.41L458.196 310.899H454.216L445.51 296.97L444.901 295.995L444.269 294.984H433.327C431.736 294.984 430.342 293.592 430.342 291.999C430.342 290.405 431.733 289.014 433.327 289.014H444.269L454.216 273.098H458.196L455.546 281.578" stroke="#0A0066" stroke-width="2" stroke-miterlimit="10"/>
<path d="M445.751 281.904C445.751 280.743 446.69 279.803 447.851 279.803H450.025L447.777 283.398C447.777 283.398 447.482 283.98 447.311 283.935C446.412 283.697 445.748 282.879 445.748 281.904H445.751Z" stroke="#0A0066" stroke-width="2" stroke-miterlimit="10"/>
<path d="M445.751 302.096C445.751 301.08 446.471 300.234 447.428 300.039C447.532 300.205 447.991 300.942 447.991 300.942L450.034 304.211L447.851 304.199C446.69 304.199 445.751 303.259 445.751 302.098V302.096Z" stroke="#0A0066" stroke-width="2" stroke-miterlimit="10"/>
</g>
</defs>
<defs>

<clipPath id="clip0_1593_11776">
<rect width="56" height="56" fill="white" transform="translate(477 352)"/>
</clipPath>
<clipPath id="clip1_1593_11776">
<rect width="56" height="56" fill="white" transform="translate(478 177)"/>
</clipPath>
<clipPath id="clip2_1593_11776">
<rect width="56" height="56" fill="white" transform="translate(422 264)"/>
</clipPath>
</defs>
</svg>